<svg id="Capa_1" data-name="Capa 1" xmlns="http://www.w3.org/2000/svg" viewBox="0 0 184.85 38.03"><defs><style>.cls-1{fill:#fff;}.cls-2{fill:#ffcd0b;}</style></defs><path class="cls-1" d="M2.14,36,8,6.06h9.2a12.1,12.1,0,0,1,6.71,1.78,9.35,9.35,0,0,1,3.88,5.05,14.39,14.39,0,0,1,.3,7.44l-.27,1.38a18.39,18.39,0,0,1-3.16,7.41,16.34,16.34,0,0,1-5.81,5A16.08,16.08,0,0,1,11.4,36Zm11-24.91L9.26,31h3a8.08,8.08,0,0,0,6-2.36,12.91,12.91,0,0,0,3.27-6.75l.31-1.59q.89-4.56-.55-6.91c-.95-1.56-2.64-2.35-5.07-2.35Z" transform="translate(-2.14 -0.98)"/><path class="cls-1" d="M55.81,6.06,52,25.76a12.6,12.6,0,0,1-4.58,7.76,14,14,0,0,1-8.95,2.85q-5.24,0-7.77-2.77C29,31.75,28.44,29.21,29,26L32.9,6.06h6.16L35.22,25.8c-.38,2-.19,3.38.58,4.28a4.49,4.49,0,0,0,3.63,1.34q5.19,0,6.33-5.46l3.87-19.9Z" transform="translate(-2.14 -0.98)"/><path class="cls-1" d="M73.46,23H61.63l-1.56,8H74L73,36H53l5.81-29.9h20l-1,5H64l-1.38,7.13H74.4Z" transform="translate(-2.14 -0.98)"/><path class="cls-1" d="M81.63,31H94.71l-1,4.95H74.51l5.81-29.9h6.16Z" transform="translate(-2.14 -0.98)"/><path class="cls-1" d="M161.54,6.06l-3.83,19.7a12.55,12.55,0,0,1-4.58,7.76,14,14,0,0,1-8.94,2.85c-3.49,0-6.09-.92-7.78-2.77s-2.25-4.39-1.66-7.62l3.87-19.92h6.16L140.94,25.8c-.38,2-.18,3.38.58,4.28a4.49,4.49,0,0,0,3.63,1.34c3.46,0,5.58-1.82,6.34-5.46l3.87-19.9Z" transform="translate(-2.14 -0.98)"/><path class="cls-1" d="M186,11.05h-9.15L172,36h-6.16l4.84-24.91h-9l1-5H187Z" transform="translate(-2.14 -0.98)"/><path class="cls-2" d="M105,34.81,112,21.09h-6.09L116.36,1,113.1,4.51s-13.46.25-15.76,14.81C96.53,24.48,100.06,32,105,34.81Z" transform="translate(-2.14 -0.98)"/><path class="cls-2" d="M117.18,15.11l7.6-12.23-1,5s9.51,6.79,5.44,18.34-15.56,11.23-15.56,11.23a16.33,16.33,0,0,1-6.18-1.18L102.91,39l21.47-23.91Z" transform="translate(-2.14 -0.98)"/></svg>